# 3ds Max Wavefront OBJ Exporter v0.99 - (c)2007 guruware
# File Created: 08.12.2025 10:16:14

mtllib quiz text.mtl

#
# object Text001
#

v  844.730896 92.933929 -15.507178
v  844.730896 93.131500 -15.337729
v  844.730896 93.338264 -15.181968
v  844.730896 93.554222 -15.039895
v  844.730896 93.779373 -14.911514
v  844.730896 94.013718 -14.796818
v  844.730896 94.257263 -14.695812
v  844.730896 94.509880 -14.608376
v  844.730896 94.771454 -14.534391
v  844.730896 95.041985 -14.473860
v  844.730896 95.321472 -14.426779
v  844.730896 95.609924 -14.393150
v  844.730896 95.907326 -14.372973
v  844.730896 96.213684 -14.366247
v  844.730896 96.582603 -14.376747
v  844.730896 96.940605 -14.408247
v  844.730896 97.287689 -14.460749
v  844.730896 97.623863 -14.534248
v  844.730896 97.949120 -14.628752
v  844.730896 98.263458 -14.744253
v  844.730896 98.566887 -14.880756
v  844.730896 98.855408 -15.037275
v  844.730896 99.125038 -15.212830
v  844.730896 99.375771 -15.407419
v  844.730896 99.607613 -15.621040
v  844.730896 99.820557 -15.853699
v  844.730896 100.014610 -16.105389
v  844.730896 100.189766 -16.376114
v  844.730896 100.343643 -16.661272
v  844.730896 100.473846 -16.956261
v  844.730896 100.580376 -17.261080
v  844.730896 100.663231 -17.575729
v  844.730896 100.722420 -17.900213
v  844.730896 100.757927 -18.234524
v  844.730896 100.769760 -18.578667
v  844.730896 100.758347 -18.919556
v  844.730896 100.724091 -19.250978
v  844.730896 100.667007 -19.572941
v  844.730896 100.587082 -19.885441
v  844.730896 100.484329 -20.188480
v  844.730896 100.358734 -20.482056
v  844.730896 100.210304 -20.766169
v  844.730896 100.040031 -21.036404
v  844.730896 99.848892 -21.288338
v  844.730896 99.636887 -21.521980
v  844.730896 99.404015 -21.737320
v  844.730896 99.150284 -21.934368
v  844.730896 98.875679 -22.113117
v  844.730896 98.580215 -22.273569
v  844.730896 98.269531 -22.414066
v  844.730896 97.949265 -22.532948
v  844.730896 97.619423 -22.630215
v  844.730896 97.279991 -22.705864
v  844.730896 96.930984 -22.759903
v  844.730896 96.572395 -22.792324
v  844.730896 96.204224 -22.803131
v  844.730896 95.834946 -22.792381
v  844.730896 95.476479 -22.760120
v  844.730896 95.128807 -22.706360
v  844.730896 94.791946 -22.631090
v  844.730896 94.465889 -22.534321
v  844.730896 94.150635 -22.416042
v  844.730896 93.846191 -22.276257
v  844.730896 93.556725 -22.116564
v  844.730896 93.286407 -21.938557
v  844.730896 93.035248 -21.742237
v  844.730896 92.803238 -21.527596
v  844.730896 92.590378 -21.294649
v  844.730896 92.396675 -21.043381
v  844.730896 92.222122 -20.773804
v  844.730896 92.068932 -20.490520
v  844.730896 91.939308 -20.198149
v  844.730896 91.833252 -19.896690
v  844.730896 91.750771 -19.586140
v  844.730896 91.691849 -19.266504
v  844.730896 91.656494 -18.937775
v  844.730896 91.644714 -18.599960
v  844.730896 91.655914 -18.265160
v  844.730896 91.689514 -17.938725
v  844.730896 91.745514 -17.620655
v  844.730896 91.823914 -17.310951
v  844.730896 91.924713 -17.009613
v  844.730896 92.047920 -16.716639
v  844.730896 92.193520 -16.432028
v  844.730896 91.989967 -16.162418
v  844.730896 91.802635 -15.892573
v  844.730896 91.631538 -15.622492
v  844.730896 91.476677 -15.352173
v  844.730896 91.338036 -15.081617
v  844.730896 91.215630 -14.810823
v  844.730896 91.109451 -14.539793
v  844.730896 91.921486 -14.201087
v  844.730896 92.002129 -14.398429
v  844.730896 92.095139 -14.600906
v  844.730896 92.200508 -14.808518
v  844.730896 92.318230 -15.021265
v  844.730896 92.448311 -15.239149
v  844.730896 92.590759 -15.462165
v  844.730896 92.745560 -15.690317
v  844.730896 93.388565 -18.548561
v  844.730896 93.341446 -18.375782
v  844.730896 93.286003 -18.205462
v  844.730896 93.222229 -18.037600
v  844.730896 93.150124 -17.872192
v  844.730896 93.069695 -17.709248
v  844.730896 92.980927 -17.548758
v  844.730896 92.883835 -17.390726
v  844.730896 92.821648 -17.550724
v  844.730896 92.769028 -17.713671
v  844.730896 92.725975 -17.879568
v  844.730896 92.692482 -18.048412
v  844.730896 92.668564 -18.220211
v  844.730896 92.654213 -18.394953
v  844.730896 92.649429 -18.572647
v  844.730896 92.668198 -18.942028
v  844.730896 92.724487 -19.292084
v  844.730896 92.818306 -19.622818
v  844.730896 92.949661 -19.934227
v  844.730896 93.118538 -20.226315
v  844.730896 93.324944 -20.499077
v  844.730896 93.568878 -20.752514
v  844.730896 93.847900 -20.978876
v  844.730896 94.159546 -21.170412
v  844.730896 94.503822 -21.327126
v  844.730896 94.880730 -21.449013
v  844.730896 95.290268 -21.536079
v  844.730896 95.732437 -21.588314
v  844.730896 96.207237 -21.605728
v  844.730896 96.695808 -21.588131
v  844.730896 97.148438 -21.535339
v  844.730896 97.565140 -21.447357
v  844.730896 97.945900 -21.324177
v  844.730896 98.290733 -21.165808
v  844.730896 98.599625 -20.972240
v  844.730896 98.872581 -20.743481
v  844.730896 99.109360 -20.488014
v  844.730896 99.309708 -20.214333
v  844.730896 99.473625 -19.922432
v  844.730896 99.601120 -19.612310
v  844.730896 99.692192 -19.283976
v  844.730896 99.746826 -18.937420
v  844.730896 99.765045 -18.572647
v  844.730896 99.756027 -18.326328
v  844.730896 99.728981 -18.087025
v  844.730896 99.683914 -17.854744
v  844.730896 99.620811 -17.629475
v  844.730896 99.539680 -17.411228
v  844.730896 99.440514 -17.199997
v  844.730896 99.323326 -16.995785
v  844.730896 99.189827 -16.801971
v  844.730896 99.041725 -16.621937
v  844.730896 98.879028 -16.455685
v  844.730896 98.701736 -16.303213
v  844.730896 98.509842 -16.164524
v  844.730896 98.303352 -16.039616
v  844.730896 98.082268 -15.928486
v  844.730896 97.848366 -15.831692
v  844.730896 97.603432 -15.749791
v  844.730896 97.347466 -15.682781
v  844.730896 97.080460 -15.630661
v  844.730896 96.802429 -15.593434
v  844.730896 96.513359 -15.571098
v  844.730896 96.213257 -15.563651
v  844.730896 95.695068 -15.584696
v  844.730896 95.215385 -15.647827
v  844.730896 94.774208 -15.753050
v  844.730896 94.371544 -15.900359
v  844.730896 94.007385 -16.089760
v  844.730896 93.681732 -16.321247
v  844.730896 93.394585 -16.594822
v  844.730896 93.548752 -16.789856
v  844.730896 93.691635 -16.999416
v  844.730896 93.823227 -17.223503
v  844.730896 93.943535 -17.462116
v  844.730896 94.052551 -17.715260
v  844.730896 94.150284 -17.982929
v  844.730896 94.236725 -18.265125
v  844.730896 95.522087 -7.016659
v  844.730896 95.069016 -7.027820
v  844.730896 94.659966 -7.061302
v  844.730896 94.294937 -7.117105
v  844.730896 93.973923 -7.195230
v  844.730896 93.696938 -7.295677
v  844.730896 93.463966 -7.418445
v  844.730896 93.275017 -7.563534
v  844.730896 93.119995 -7.734864
v  844.730896 92.988831 -7.936354
v  844.730896 92.881508 -8.168003
v  844.730896 92.798042 -8.429812
v  844.730896 92.738419 -8.721782
v  844.730896 92.702644 -9.043911
v  844.730896 92.690720 -9.396200
v  844.730896 92.696747 -9.606098
v  844.730896 92.714813 -9.806553
v  844.730896 92.744934 -9.997561
v  844.730896 92.787102 -10.179127
v  844.730896 92.841309 -10.351247
v  844.730896 92.907570 -10.513922
v  844.730896 92.985878 -10.667152
v  844.730896 93.075310 -10.809406
v  844.730896 93.174950 -10.939152
v  844.730896 93.284790 -11.056390
v  844.730896 93.404831 -11.161119
v  844.730896 93.535080 -11.253342
v  844.730896 93.675537 -11.333055
v  844.730896 93.826187 -11.400261
v  844.730896 93.994308 -11.456860
v  844.730896 94.187141 -11.504749
v  844.730896 94.404694 -11.543933
v  844.730896 94.646965 -11.574409
v  844.730896 94.913956 -11.596178
v  844.730896 95.205658 -11.609239
v  844.730896 95.522087 -11.613592
v  844.730896 100.618362 -11.613592
v  844.730896 100.618362 -12.783470
v  844.730896 95.520576 -12.783470
v  844.730896 95.132004 -12.776595
v  844.730896 94.767639 -12.755970
v  844.730896 94.427467 -12.721595
v  844.730896 94.111496 -12.673470
v  844.730896 93.819725 -12.611594
v  844.730896 93.552147 -12.535969
v  844.730896 93.308777 -12.446593
v  844.730896 93.085304 -12.341132
v  844.730896 92.877426 -12.217251
v  844.730896 92.685150 -12.074951
v  844.730896 92.508469 -11.914230
v  844.730896 92.347389 -11.735092
v  844.730896 92.201904 -11.537532
v  844.730896 92.072021 -11.321552
v  844.730896 91.958649 -11.087155
v  844.730896 91.862724 -10.834343
v  844.730896 91.784241 -10.563116
v  844.730896 91.723198 -10.273472
v  844.730896 91.679596 -9.965414
v  844.730896 91.653435 -9.638940
v  844.730896 91.644714 -9.294050
v  844.730896 91.654724 -8.939640
v  844.730896 91.684753 -8.605247
v  844.730896 91.734810 -8.290870
v  844.730896 91.804886 -7.996511
v  844.730896 91.894981 -7.722169
v  844.730896 92.005104 -7.467845
v  844.730896 92.135246 -7.233538
v  844.730896 92.281349 -7.019121
v  844.730896 92.439369 -6.824467
v  844.730896 92.609299 -6.649576
v  844.730896 92.791138 -6.494447
v  844.730896 92.984894 -6.359081
v  844.730896 93.190559 -6.243478
v  844.730896 93.408134 -6.147638
v  844.730896 93.642838 -6.067819
v  844.730896 93.899902 -6.000279
v  844.730896 94.179329 -5.945020
v  844.730896 94.481102 -5.902040
v  844.730896 94.805237 -5.871340
v  844.730896 95.151733 -5.852921
v  844.730896 95.520576 -5.846781
v  844.730896 100.618362 -5.846781
v  844.730896 100.618362 -7.016659
v  844.730896 91.796104 -2.543595
v  844.730896 100.618362 -2.543595
v  844.730896 100.618362 -3.713473
v  844.730896 91.796104 -3.713473
v  844.730896 91.796104 5.796947
v  844.730896 92.842117 5.796947
v  844.730896 92.842117 0.160887
v  844.730896 93.463615 0.685182
v  844.730896 99.572357 5.645552
v  844.730896 100.618362 5.645552
v  844.730896 100.618362 -0.671792
v  844.730896 99.572357 -0.671792
v  844.730896 99.572357 4.251373
v  844.730896 99.441589 4.126828
v  844.730896 99.304291 4.000563
v  844.730896 99.160446 3.872577
v  844.730896 99.010063 3.742869
v  844.730896 98.853142 3.611446
v  844.730896 98.689682 3.478297
v  844.730896 98.519684 3.343430
v  844.730896 92.884270 -1.181032
v  844.730896 91.796104 -1.181032
v  843.752625 94.013718 -14.796818
v  843.752625 94.257263 -14.695812
v  843.752625 94.509880 -14.608376
v  843.752625 94.771454 -14.534391
v  843.752625 95.041985 -14.473860
v  843.752625 95.321472 -14.426779
v  843.752625 95.609924 -14.393150
v  843.752625 95.907326 -14.372973
v  843.752625 96.213684 -14.366247
v  843.752625 96.582603 -14.376747
v  843.752625 96.940605 -14.408247
v  843.752625 97.287689 -14.460749
v  843.752625 97.623863 -14.534248
v  843.752625 97.949120 -14.628752
v  843.752625 98.263458 -14.744253
v  843.752625 98.566887 -14.880756
v  843.752625 98.855408 -15.037275
v  843.752625 99.125038 -15.212830
v  843.752625 99.375771 -15.407419
v  843.752625 99.607613 -15.621040
v  843.752625 99.820557 -15.853699
v  843.752625 100.014610 -16.105389
v  843.752625 100.189766 -16.376114
v  843.752625 100.343643 -16.661272
v  843.752625 100.473846 -16.956261
v  843.752625 100.580376 -17.261080
v  843.752625 100.663231 -17.575729
v  843.752625 100.722420 -17.900213
v  843.752625 100.757927 -18.234524
v  843.752625 100.769760 -18.578667
v  843.752625 100.758347 -18.919556
v  843.752625 100.724091 -19.250978
v  843.752625 100.667007 -19.572941
v  843.752625 100.587082 -19.885441
v  843.752625 100.484329 -20.188480
v  843.752625 100.358734 -20.482056
v  843.752625 100.210304 -20.766169
v  843.752625 100.040031 -21.036404
v  843.752625 99.848892 -21.288338
v  843.752625 99.636887 -21.521980
v  843.752625 99.404015 -21.737320
v  843.752625 99.150284 -21.934368
v  843.752625 98.875679 -22.113117
v  843.752625 98.580215 -22.273569
v  843.752625 98.269531 -22.414066
v  843.752625 97.949265 -22.532948
v  843.752625 97.619423 -22.630215
v  843.752625 97.279991 -22.705864
v  843.752625 96.930984 -22.759903
v  843.752625 96.572395 -22.792324
v  843.752625 96.204224 -22.803131
v  843.752625 95.834946 -22.792381
v  843.752625 95.476479 -22.760120
v  843.752625 95.128807 -22.706360
v  843.752625 94.791946 -22.631090
v  843.752625 94.465889 -22.534321
v  843.752625 94.150635 -22.416042
v  843.752625 93.846191 -22.276257
v  843.752625 93.556725 -22.116564
v  843.752625 93.286407 -21.938557
v  843.752625 93.035248 -21.742237
v  843.752625 92.803238 -21.527596
v  843.752625 92.590378 -21.294649
v  843.752625 92.396675 -21.043381
v  843.752625 92.222122 -20.773804
v  843.752625 92.068932 -20.490520
v  843.752625 91.939308 -20.198149
v  843.752625 91.833252 -19.896690
v  843.752625 91.750771 -19.586140
v  843.752625 91.691849 -19.266504
v  843.752625 91.656494 -18.937775
v  843.752625 91.644714 -18.599960
v  843.752625 91.655914 -18.265160
v  843.752625 91.689514 -17.938725
v  843.752625 91.745514 -17.620655
v  843.752625 91.823914 -17.310951
v  843.752625 91.924721 -17.009613
v  843.752625 92.047920 -16.716639
v  843.752625 92.193520 -16.432028
v  843.752625 91.989967 -16.162418
v  843.752625 91.802635 -15.892573
v  843.752625 91.631538 -15.622492
v  843.752625 91.476677 -15.352173
v  843.752625 91.338036 -15.081617
v  843.752625 91.215630 -14.810823
v  843.752625 91.109451 -14.539793
v  843.752625 91.921486 -14.201087
v  843.752625 92.002129 -14.398429
v  843.752625 92.095139 -14.600906
v  843.752625 92.200508 -14.808518
v  843.752625 92.318230 -15.021265
v  843.752625 92.448311 -15.239149
v  843.752625 92.590759 -15.462165
v  843.752625 92.745560 -15.690317
v  843.752625 92.933929 -15.507178
v  843.752625 93.131500 -15.337729
v  843.752625 93.338264 -15.181968
v  843.752625 93.554222 -15.039895
v  843.752625 93.779373 -14.911514
v  843.752625 94.236725 -18.265125
v  843.752625 93.388565 -18.548561
v  843.752625 93.341446 -18.375782
v  843.752625 93.286003 -18.205462
v  843.752625 93.222229 -18.037600
v  843.752625 93.150124 -17.872192
v  843.752625 93.069695 -17.709248
v  843.752625 92.980927 -17.548758
v  843.752625 92.883835 -17.390726
v  843.752625 92.821648 -17.550724
v  843.752625 92.769028 -17.713671
v  843.752625 92.725975 -17.879568
v  843.752625 92.692482 -18.048412
v  843.752625 92.668564 -18.220211
v  843.752625 92.654213 -18.394953
v  843.752625 92.649429 -18.572647
v  843.752625 92.668198 -18.942028
v  843.752625 92.724487 -19.292084
v  843.752625 92.818314 -19.622818
v  843.752625 92.949661 -19.934227
v  843.752625 93.118538 -20.226315
v  843.752625 93.324944 -20.499077
v  843.752625 93.568878 -20.752514
v  843.752625 93.847900 -20.978876
v  843.752625 94.159546 -21.170412
v  843.752625 94.503822 -21.327126
v  843.752625 94.880730 -21.449013
v  843.752625 95.290268 -21.536079
v  843.752625 95.732437 -21.588314
v  843.752625 96.207237 -21.605728
v  843.752625 96.695808 -21.588131
v  843.752625 97.148438 -21.535339
v  843.752625 97.565140 -21.447357
v  843.752625 97.945900 -21.324177
v  843.752625 98.290733 -21.165808
v  843.752625 98.599625 -20.972240
v  843.752625 98.872581 -20.743481
v  843.752625 99.109360 -20.488014
v  843.752625 99.309708 -20.214333
v  843.752625 99.473625 -19.922432
v  843.752625 99.601120 -19.612310
v  843.752625 99.692192 -19.283976
v  843.752625 99.746826 -18.937420
v  843.752625 99.765045 -18.572647
v  843.752625 99.756027 -18.326328
v  843.752625 99.728981 -18.087025
v  843.752625 99.683914 -17.854744
v  843.752625 99.620811 -17.629475
v  843.752625 99.539680 -17.411228
v  843.752625 99.440514 -17.199997
v  843.752625 99.323326 -16.995785
v  843.752625 99.189827 -16.801971
v  843.752625 99.041725 -16.621937
v  843.752625 98.879028 -16.455685
v  843.752625 98.701736 -16.303213
v  843.752625 98.509842 -16.164524
v  843.752625 98.303352 -16.039616
v  843.752625 98.082268 -15.928486
v  843.752625 97.848366 -15.831692
v  843.752625 97.603432 -15.749791
v  843.752625 97.347466 -15.682781
v  843.752625 97.080460 -15.630661
v  843.752625 96.802429 -15.593434
v  843.752625 96.513359 -15.571098
v  843.752625 96.213257 -15.563651
v  843.752625 95.695068 -15.584696
v  843.752625 95.215385 -15.647827
v  843.752625 94.774208 -15.753050
v  843.752625 94.371544 -15.900359
v  843.752625 94.007385 -16.089760
v  843.752625 93.681732 -16.321247
v  843.752625 93.394585 -16.594822
v  843.752625 93.548752 -16.789856
v  843.752625 93.691635 -16.999416
v  843.752625 93.823227 -17.223503
v  843.752625 93.943535 -17.462116
v  843.752625 94.052551 -17.715260
v  843.752625 94.150284 -17.982929
v  843.752625 100.618362 -5.846781
v  843.752625 100.618362 -7.016659
v  843.752625 95.522087 -7.016659
v  843.752625 95.069016 -7.027820
v  843.752625 94.659966 -7.061302
v  843.752625 94.294937 -7.117105
v  843.752625 93.973923 -7.195230
v  843.752625 93.696938 -7.295677
v  843.752625 93.463966 -7.418445
v  843.752625 93.275017 -7.563534
v  843.752625 93.119995 -7.734864
v  843.752625 92.988831 -7.936354
v  843.752625 92.881508 -8.168003
v  843.752625 92.798042 -8.429813
v  843.752625 92.738419 -8.721783
v  843.752625 92.702644 -9.043911
v  843.752625 92.690720 -9.396200
v  843.752625 92.696747 -9.606098
v  843.752625 92.714813 -9.806553
v  843.752625 92.744934 -9.997562
v  843.752625 92.787102 -10.179127
v  843.752625 92.841309 -10.351247
v  843.752625 92.907570 -10.513922
v  843.752625 92.985878 -10.667152
v  843.752625 93.075310 -10.809406
v  843.752625 93.174950 -10.939153
v  843.752625 93.284790 -11.056391
v  843.752625 93.404831 -11.161119
v  843.752625 93.535080 -11.253342
v  843.752625 93.675537 -11.333055
v  843.752625 93.826187 -11.400261
v  843.752625 93.994308 -11.456860
v  843.752625 94.187141 -11.504749
v  843.752625 94.404694 -11.543933
v  843.752625 94.646965 -11.574409
v  843.752625 94.913956 -11.596178
v  843.752625 95.205658 -11.609240
v  843.752625 95.522087 -11.613592
v  843.752625 100.618362 -11.613592
v  843.752625 100.618362 -12.783470
v  843.752625 95.520576 -12.783470
v  843.752625 95.132004 -12.776595
v  843.752625 94.767639 -12.755970
v  843.752625 94.427467 -12.721595
v  843.752625 94.111496 -12.673470
v  843.752625 93.819725 -12.611594
v  843.752625 93.552147 -12.535969
v  843.752625 93.308777 -12.446593
v  843.752625 93.085304 -12.341132
v  843.752625 92.877426 -12.217252
v  843.752625 92.685150 -12.074951
v  843.752625 92.508469 -11.914231
v  843.752625 92.347389 -11.735092
v  843.752625 92.201904 -11.537533
v  843.752625 92.072021 -11.321552
v  843.752625 91.958649 -11.087155
v  843.752625 91.862724 -10.834343
v  843.752625 91.784241 -10.563116
v  843.752625 91.723198 -10.273473
v  843.752625 91.679596 -9.965414
v  843.752625 91.653435 -9.638940
v  843.752625 91.644714 -9.294051
v  843.752625 91.654724 -8.939640
v  843.752625 91.684753 -8.605247
v  843.752625 91.734810 -8.290871
v  843.752625 91.804886 -7.996511
v  843.752625 91.894981 -7.722170
v  843.752625 92.005104 -7.467845
v  843.752625 92.135246 -7.233539
v  843.752625 92.281349 -7.019122
v  843.752625 92.439369 -6.824467
v  843.752625 92.609299 -6.649576
v  843.752625 92.791138 -6.494448
v  843.752625 92.984894 -6.359081
v  843.752625 93.190559 -6.243478
v  843.752625 93.408134 -6.147638
v  843.752625 93.642838 -6.067819
v  843.752625 93.899902 -6.000279
v  843.752625 94.179329 -5.945020
v  843.752625 94.481102 -5.902040
v  843.752625 94.805237 -5.871341
v  843.752625 95.151733 -5.852921
v  843.752625 95.520576 -5.846781
v  843.752625 100.618362 -3.713473
v  843.752625 91.796104 -3.713473
v  843.752625 91.796104 -2.543595
v  843.752625 100.618362 -2.543595
v  843.752625 92.884270 -1.181032
v  843.752625 91.796104 -1.181032
v  843.752625 91.796104 5.796947
v  843.752625 92.842117 5.796947
v  843.752625 92.842117 0.160887
v  843.752625 93.463615 0.685182
v  843.752625 99.572357 5.645552
v  843.752625 100.618362 5.645552
v  843.752625 100.618362 -0.671792
v  843.752625 99.572357 -0.671792
v  843.752625 99.572357 4.251373
v  843.752625 99.441589 4.126828
v  843.752625 99.304291 4.000563
v  843.752625 99.160446 3.872577
v  843.752625 99.010063 3.742869
v  843.752625 98.853142 3.611446
v  843.752625 98.689682 3.478297
v  843.752625 98.519684 3.343430
# 564 vertices

o Text001
g Text001
usemtl wire_035030158
f 382 383 384 385 386 387 388 389 390 391 392 393 394 395 396 397 398 399 400 401 402 403 404 405 406 407 408 409 410 411 412 413 414 415 416 417 418 419 420 421 422 423 424 425 426 427 428 429 430 431 432 433 434 435 436 437 438 439 440 441 442 443 444 445 446 447 448 449 450 451 284 285 286 287 288 289 290 291 292 293 294 295 296 297 298 299 300 301 302 303 304 305 306 307 308 309 310 311 312 313 314 315 316 317 318 319 320 321 322 323 324 325 326 327 328 329 330 331 332 333 334 335 336 337 338 339 340 341 342 343 344 345 346 347 348 349 350 351 352 353 354 355 356 357 358 359 360 361 362 363 364 365 366 367 368 369 370 371 372 373 374 375 376 377 378 379 380 381 283 284 451 452 453 454 455 456 457 458 459 
f 498 499 500 501 502 503 504 505 506 507 508 509 510 511 512 513 514 515 516 517 518 519 520 521 522 523 524 525 526 527 528 529 530 531 532 533 534 535 536 537 538 539 540 541 542 460 461 462 463 464 465 466 467 468 469 470 471 472 473 474 475 476 477 478 479 480 481 482 483 484 485 486 487 488 489 490 491 492 493 494 495 496 497 
f 543 544 545 546 
f 555 556 557 558 559 560 561 562 563 564 547 548 549 550 551 552 553 554 
f 6 7 284 283 
f 7 8 285 284 
f 8 9 286 285 
f 9 10 287 286 
f 10 11 288 287 
f 11 12 289 288 
f 12 13 290 289 
f 13 14 291 290 
f 14 15 292 291 
f 15 16 293 292 
f 16 17 294 293 
f 17 18 295 294 
f 18 19 296 295 
f 19 20 297 296 
f 20 21 298 297 
f 21 22 299 298 
f 22 23 300 299 
f 23 24 301 300 
f 24 25 302 301 
f 25 26 303 302 
f 26 27 304 303 
f 27 28 305 304 
f 28 29 306 305 
f 29 30 307 306 
f 30 31 308 307 
f 31 32 309 308 
f 32 33 310 309 
f 33 34 311 310 
f 34 35 312 311 
f 35 36 313 312 
f 36 37 314 313 
f 37 38 315 314 
f 38 39 316 315 
f 39 40 317 316 
f 40 41 318 317 
f 41 42 319 318 
f 42 43 320 319 
f 43 44 321 320 
f 44 45 322 321 
f 45 46 323 322 
f 46 47 324 323 
f 47 48 325 324 
f 48 49 326 325 
f 49 50 327 326 
f 50 51 328 327 
f 51 52 329 328 
f 52 53 330 329 
f 53 54 331 330 
f 54 55 332 331 
f 55 56 333 332 
f 56 57 334 333 
f 57 58 335 334 
f 58 59 336 335 
f 59 60 337 336 
f 60 61 338 337 
f 61 62 339 338 
f 62 63 340 339 
f 63 64 341 340 
f 64 65 342 341 
f 65 66 343 342 
f 66 67 344 343 
f 67 68 345 344 
f 68 69 346 345 
f 69 70 347 346 
f 70 71 348 347 
f 71 72 349 348 
f 72 73 350 349 
f 73 74 351 350 
f 74 75 352 351 
f 75 76 353 352 
f 76 77 354 353 
f 77 78 355 354 
f 78 79 356 355 
f 79 80 357 356 
f 80 81 358 357 
f 81 82 359 358 
f 82 83 360 359 
f 83 84 361 360 
f 84 85 362 361 
f 85 86 363 362 
f 86 87 364 363 
f 87 88 365 364 
f 88 89 366 365 
f 89 90 367 366 
f 90 91 368 367 
f 91 92 369 368 
f 92 93 370 369 
f 93 94 371 370 
f 94 95 372 371 
f 95 96 373 372 
f 96 97 374 373 
f 97 98 375 374 
f 98 99 376 375 
f 99 1 377 376 
f 1 2 378 377 
f 2 3 379 378 
f 3 4 380 379 
f 4 5 381 380 
f 5 6 283 381 
f 177 100 383 382 
f 100 101 384 383 
f 101 102 385 384 
f 102 103 386 385 
f 103 104 387 386 
f 104 105 388 387 
f 105 106 389 388 
f 106 107 390 389 
f 107 108 391 390 
f 108 109 392 391 
f 109 110 393 392 
f 110 111 394 393 
f 111 112 395 394 
f 112 113 396 395 
f 113 114 397 396 
f 114 115 398 397 
f 115 116 399 398 
f 116 117 400 399 
f 117 118 401 400 
f 118 119 402 401 
f 119 120 403 402 
f 120 121 404 403 
f 121 122 405 404 
f 122 123 406 405 
f 123 124 407 406 
f 124 125 408 407 
f 125 126 409 408 
f 126 127 410 409 
f 127 128 411 410 
f 128 129 412 411 
f 129 130 413 412 
f 130 131 414 413 
f 131 132 415 414 
f 132 133 416 415 
f 133 134 417 416 
f 134 135 418 417 
f 135 136 419 418 
f 136 137 420 419 
f 137 138 421 420 
f 138 139 422 421 
f 139 140 423 422 
f 140 141 424 423 
f 141 142 425 424 
f 142 143 426 425 
f 143 144 427 426 
f 144 145 428 427 
f 145 146 429 428 
f 146 147 430 429 
f 147 148 431 430 
f 148 149 432 431 
f 149 150 433 432 
f 150 151 434 433 
f 151 152 435 434 
f 152 153 436 435 
f 153 154 437 436 
f 154 155 438 437 
f 155 156 439 438 
f 156 157 440 439 
f 157 158 441 440 
f 158 159 442 441 
f 159 160 443 442 
f 160 161 444 443 
f 161 162 445 444 
f 162 163 446 445 
f 163 164 447 446 
f 164 165 448 447 
f 165 166 449 448 
f 166 167 450 449 
f 167 168 451 450 
f 168 169 452 451 
f 169 170 453 452 
f 170 171 454 453 
f 171 172 455 454 
f 172 173 456 455 
f 173 174 457 456 
f 174 175 458 457 
f 175 176 459 458 
f 176 177 382 459 
f 259 260 461 460 
f 260 178 462 461 
f 178 179 463 462 
f 179 180 464 463 
f 180 181 465 464 
f 181 182 466 465 
f 182 183 467 466 
f 183 184 468 467 
f 184 185 469 468 
f 185 186 470 469 
f 186 187 471 470 
f 187 188 472 471 
f 188 189 473 472 
f 189 190 474 473 
f 190 191 475 474 
f 191 192 476 475 
f 192 193 477 476 
f 193 194 478 477 
f 194 195 479 478 
f 195 196 480 479 
f 196 197 481 480 
f 197 198 482 481 
f 198 199 483 482 
f 199 200 484 483 
f 200 201 485 484 
f 201 202 486 485 
f 202 203 487 486 
f 203 204 488 487 
f 204 205 489 488 
f 205 206 490 489 
f 206 207 491 490 
f 207 208 492 491 
f 208 209 493 492 
f 209 210 494 493 
f 210 211 495 494 
f 211 212 496 495 
f 212 213 497 496 
f 213 214 498 497 
f 214 215 499 498 
f 215 216 500 499 
f 216 217 501 500 
f 217 218 502 501 
f 218 219 503 502 
f 219 220 504 503 
f 220 221 505 504 
f 221 222 506 505 
f 222 223 507 506 
f 223 224 508 507 
f 224 225 509 508 
f 225 226 510 509 
f 226 227 511 510 
f 227 228 512 511 
f 228 229 513 512 
f 229 230 514 513 
f 230 231 515 514 
f 231 232 516 515 
f 232 233 517 516 
f 233 234 518 517 
f 234 235 519 518 
f 235 236 520 519 
f 236 237 521 520 
f 237 238 522 521 
f 238 239 523 522 
f 239 240 524 523 
f 240 241 525 524 
f 241 242 526 525 
f 242 243 527 526 
f 243 244 528 527 
f 244 245 529 528 
f 245 246 530 529 
f 246 247 531 530 
f 247 248 532 531 
f 248 249 533 532 
f 249 250 534 533 
f 250 251 535 534 
f 251 252 536 535 
f 252 253 537 536 
f 253 254 538 537 
f 254 255 539 538 
f 255 256 540 539 
f 256 257 541 540 
f 257 258 542 541 
f 258 259 460 542 
f 263 264 544 543 
f 264 261 545 544 
f 261 262 546 545 
f 262 263 543 546 
f 281 282 548 547 
f 282 265 549 548 
f 265 266 550 549 
f 266 267 551 550 
f 267 268 552 551 
f 268 269 553 552 
f 269 270 554 553 
f 270 271 555 554 
f 271 272 556 555 
f 272 273 557 556 
f 273 274 558 557 
f 274 275 559 558 
f 275 276 560 559 
f 276 277 561 560 
f 277 278 562 561 
f 278 279 563 562 
f 279 280 564 563 
f 280 281 547 564 
# 286 polygons

